<svg width="20" height="24" viewBox="0 0 20 24" fill="none" xmlns="http://www.w3.org/2000/svg">
<path fill-rule="evenodd" clip-rule="evenodd" d="M19.53 5.42063L15.2365 0.825776L15.1414 0.742971C14.9777 0.61993 14.776 0.560719 14.5729 0.576129C14.3698 0.59154 14.179 0.680546 14.0352 0.826926L13.9536 0.923531C13.8327 1.08955 13.7743 1.29415 13.7893 1.50013C13.8043 1.70611 13.8915 1.8998 14.0352 2.04599L16.8828 5.17222L5.27214 5.14029C5.13264 5.05147 4.96702 5.00001 4.78938 5.00001C4.05248 5.00003 3.10934 5.34151 2.35218 5.94724C1.56651 6.57577 0.889404 7.56544 0.889404 8.90001C0.889404 9.39707 1.29235 9.80001 1.7894 9.80001C2.28646 9.80001 2.6894 9.39707 2.6894 8.90001C2.6894 8.23458 3.01229 7.72427 3.47663 7.35281C3.79808 7.09564 4.14678 6.93878 4.42343 6.86077L16.8816 6.89616L13.9389 9.95994L13.8563 10.0565C13.7281 10.2317 13.67 10.4497 13.6938 10.6666C13.7176 10.8835 13.8214 11.0832 13.9844 11.2254C14.1474 11.3676 14.3574 11.4418 14.5721 11.433C14.7868 11.4242 14.9902 11.333 15.1414 11.1779L19.5311 6.64085L19.6127 6.54309C19.7335 6.37694 19.7916 6.17227 19.7764 5.96628C19.7613 5.76029 19.6738 5.56668 19.53 5.42063Z" fill="white"/>
<path fill-rule="evenodd" clip-rule="evenodd" d="M0.248795 19.0131L4.54231 23.6079L4.63742 23.6907C4.80109 23.8138 5.00284 23.873 5.2059 23.8576C5.40896 23.8422 5.5998 23.7532 5.74366 23.6068L5.82518 23.5102C5.94616 23.3442 6.00446 23.1396 5.9895 22.9336C5.97454 22.7276 5.88731 22.5339 5.74366 22.3877L2.89606 19.2615L14.4331 19.2604C14.5424 19.3076 14.6629 19.3337 14.7895 19.3337C15.5264 19.3337 16.4695 18.9922 17.2267 18.3865C18.0123 17.758 18.6895 16.7683 18.6895 15.4337C18.6895 14.9367 18.2865 14.5337 17.7895 14.5337C17.2924 14.5337 16.8895 14.9367 16.8895 15.4337C16.8895 16.0992 16.5666 16.6095 16.1022 16.9809C15.6094 17.3752 15.0525 17.5337 14.7894 17.5337C14.7613 17.5337 14.7335 17.535 14.7061 17.5376H2.89719L5.8399 14.4738L5.92256 14.3772C6.05075 14.202 6.10881 13.984 6.08503 13.7671C6.06124 13.5502 5.95739 13.3505 5.79439 13.2083C5.6314 13.0661 5.42139 12.9919 5.20669 13.0007C4.99199 13.0096 4.78857 13.1007 4.63742 13.2559L0.247663 17.7929L0.16614 17.8906C0.0453091 18.0568 -0.012804 18.2614 0.00236511 18.4674C0.0175323 18.6734 0.104977 18.867 0.248795 19.0131Z" fill="white"/>
</svg>
